<?xml version="1.0" encoding="utf-8"?>
<!-- Generator: Adobe Illustrator 17.0.2, SVG Export Plug-In . SVG Version: 6.00 Build 0)  -->
<!DOCTYPE svg PUBLIC "-//W3C//DTD SVG 1.1//EN" "http://www.w3.org/Graphics/SVG/1.1/DTD/svg11.dtd">
<svg version="1.1" id="Layer_1" xmlns="http://www.w3.org/2000/svg" xmlns:xlink="http://www.w3.org/1999/xlink" x="0px" y="0px"
	 width="118.994px" height="133.52px" viewBox="0 0 118.994 133.52" enable-background="new 0 0 118.994 133.52"
	 xml:space="preserve">
<g>
	<circle fill="#5A621C" cx="59.497" cy="66.76" r="46.537"/>
	<circle fill="none" stroke="#5A621C" stroke-width="2" stroke-miterlimit="10" cx="59.497" cy="66.76" r="49.398"/>
	<g>
		<g>
			<path fill="#FFFFFF" d="M87.347,38.816L87.347,38.816c-0.332-0.315-1.811-1.625-2.925-1.268c-0.522,0.168-0.966,0.654-1.64,1.288
				c-2.746,2.583-11.975,12.044-14.069,14.256c-2.095,2.211-7.397,8.236-9.524,10.583c-2.127,2.347-5.043,5.557-6.345,6.932
				c-1.302,1.375-7.684,8.711-11.499,12.562c-3.815,3.851-9.078,9.592-9.793,10.087c-0.692,0.479-0.114,0.996,0.169,1.28
				c0.284,0.284,0.801,0.861,1.28,0.169c0.495-0.715,6.235-5.979,10.087-9.793c3.851-3.815,11.187-10.197,12.562-11.499
				c1.375-1.302,4.585-4.218,6.932-6.345c2.347-2.127,8.372-7.429,10.583-9.524c2.211-2.095,11.672-11.323,14.256-14.069
				c0.634-0.675,1.12-1.118,1.288-1.64c0.357-1.114-0.953-2.592-1.268-2.924l0,0c0,0-0.016-0.017-0.047-0.048
				C87.364,38.832,87.347,38.816,87.347,38.816z"/>
			<path fill="#FFFFFF" d="M30.784,93.223c-0.102,0.088-0.433,0.323-0.433,0.323c-0.182,0.182-0.148,0.459-0.027,0.688
				c0.132,0.25,0.114,0.274,0.767,0.932c0.658,0.653,0.682,0.636,0.932,0.767c0.228,0.12,0.505,0.155,0.688-0.027
				c0,0,0.234-0.331,0.323-0.433c0.169-0.195,0.102-0.426,0-0.66c-0.113-0.259-0.103-0.268-0.712-0.877
				c-0.61-0.61-0.618-0.601-0.877-0.712C31.203,93.119,30.979,93.055,30.784,93.223z"/>
		</g>
		<g>
			<path fill="#FFFFFF" d="M31.648,38.816L31.648,38.816c0.332-0.315,1.811-1.625,2.925-1.268c0.522,0.168,0.966,0.654,1.64,1.288
				c2.746,2.583,11.975,12.044,14.069,14.256c2.095,2.211,7.397,8.236,9.524,10.583c2.127,2.347,5.043,5.557,6.345,6.932
				c1.302,1.375,7.684,8.711,11.499,12.562c3.815,3.851,9.078,9.592,9.793,10.087c0.692,0.479,0.114,0.996-0.169,1.28
				c-0.284,0.284-0.801,0.861-1.28,0.169c-0.495-0.715-6.235-5.979-10.087-9.793c-3.851-3.815-11.187-10.197-12.562-11.499
				c-1.375-1.302-4.585-4.218-6.932-6.345c-2.347-2.127-8.372-7.429-10.583-9.524c-2.211-2.095-11.672-11.323-14.256-14.069
				c-0.634-0.675-1.12-1.118-1.288-1.64c-0.357-1.114,0.953-2.592,1.268-2.924l0,0c0,0,0.016-0.017,0.047-0.048
				C31.63,38.832,31.648,38.816,31.648,38.816z"/>
			<path fill="#FFFFFF" d="M88.21,93.223c0.102,0.088,0.433,0.323,0.433,0.323c0.182,0.182,0.148,0.459,0.027,0.688
				c-0.132,0.25-0.114,0.274-0.767,0.932c-0.658,0.653-0.682,0.636-0.932,0.767c-0.228,0.12-0.505,0.155-0.688-0.027
				c0,0-0.234-0.331-0.323-0.433c-0.169-0.195-0.102-0.426,0-0.66c0.113-0.259,0.103-0.268,0.712-0.877
				c0.61-0.61,0.618-0.601,0.877-0.712C87.792,93.119,88.015,93.055,88.21,93.223z"/>
		</g>
	</g>
	<g>
		<g>
			<circle fill="#D35E13" stroke="#FFFFFF" stroke-width="2" stroke-miterlimit="10" cx="59.497" cy="66.76" r="18.607"/>
		</g>
		<g>
			<path fill="#FFFFFF" d="M54.82,59.053c0.03,2.388,1.865,4.47,2.546,5.387c0.286,0.386,1.328,1.963,1.332,2.96
				c0,0-1.595,0.514-3.463-2.546c-1.355-2.219-2.486-2.368-3.197-2.368c-3.907,0-4.026,10.005,0.059,10.005
				c0.888,0,2.095-0.591,3.019-1.243c1.097-0.775,2.683-2.075,3.419-2.076c0.339,0,0.311,0.336,0.311,1.01
				c0,1.125-0.2,5.005-0.296,6.246c-0.042,0.549,0.149,0.853,0.849,0.878V56.212C58.317,56.232,54.79,56.587,54.82,59.053z"/>
			<path fill="#FFFFFF" d="M60.444,76.428c-0.096-1.241-0.296-5.121-0.296-6.246c0-0.674-0.028-1.01,0.311-1.01
				c0.736,0.001,2.322,1.301,3.419,2.076c0.924,0.652,2.131,1.243,3.019,1.243c4.085,0,3.966-10.005,0.059-10.005
				c-0.71,0-1.842,0.149-3.197,2.368c-1.868,3.06-3.463,2.546-3.463,2.546c0.004-0.997,1.046-2.574,1.332-2.96
				c0.681-0.918,2.516-3,2.546-5.387c0.032-2.545-3.73-2.842-4.677-2.842c-0.03,0-0.063,0-0.098,0.001v21.094
				c0.032,0.001,0.064,0.003,0.098,0.003C60.279,77.309,60.489,77.002,60.444,76.428z"/>
		</g>
	</g>
</g>
</svg>
